<svg width="16" height="17" viewBox="0 0 16 17" fill="none" xmlns="http://www.w3.org/2000/svg">
<path fill-rule="evenodd" clip-rule="evenodd" d="M7 15.9375C7 16.2193 7.10536 16.4895 7.29289 16.6888C7.48043 16.8881 7.73478 17 8 17C8.26522 17 8.51957 16.8881 8.70711 16.6888C8.89464 16.4895 9 16.2193 9 15.9375V9.5625H15C15.2652 9.5625 15.5196 9.45056 15.7071 9.2513C15.8946 9.05204 16 8.78179 16 8.5C16 8.21821 15.8946 7.94796 15.7071 7.7487C15.5196 7.54944 15.2652 7.4375 15 7.4375H9V1.0625C9 0.780707 8.89464 0.510456 8.70711 0.311199C8.51957 0.111942 8.26522 0 8 0C7.73478 0 7.48043 0.111942 7.29289 0.311199C7.10536 0.510456 7 0.780707 7 1.0625V7.4375H1C0.734784 7.4375 0.48043 7.54944 0.292893 7.7487C0.105357 7.94796 0 8.21821 0 8.5C0 8.78179 0.105357 9.05204 0.292893 9.2513C0.48043 9.45056 0.734784 9.5625 1 9.5625H7V15.9375Z" fill="#0C8346"/>
</svg>
