<svg width="43" height="59" viewBox="0 0 43 59" fill="none" xmlns="http://www.w3.org/2000/svg">
<path d="M2.59056 0.0261688C1.34389 0.237334 0.306418 1.22981 0.0630606 2.45456C-0.000980854 2.76286 -0.00525029 5.15747 0.00328857 29.2725L0.0160968 55.7525L0.131371 56.0904C0.302148 56.5888 0.524159 56.9351 0.934024 57.3405C1.24142 57.6446 1.36951 57.7375 1.70679 57.9022C1.92453 58.0078 2.22339 58.1303 2.36428 58.1683C2.60764 58.2401 3.61522 58.2443 20.8936 58.257C33.8086 58.2654 39.2692 58.257 39.5211 58.2232C40.2469 58.1303 40.8831 57.8093 41.3868 57.2898C41.7327 56.9308 41.9632 56.555 42.1297 56.0777L42.2407 55.7525L42.2535 29.2725C42.2663 -0.252565 42.292 2.46301 41.9675 1.77884C41.5747 0.95952 40.9386 0.406265 40.0206 0.102188L39.7218 0.00505447L21.2565 0.000831604C11.0995 -0.00339169 2.70157 0.00927564 2.59056 0.0261688ZM22.785 4.54087C24.6678 4.93364 26.4012 5.85854 27.8271 7.22689C29.1934 8.54033 30.0814 10.0396 30.44 11.6487C30.5041 11.9316 30.534 12.2611 30.551 12.8228C30.5724 13.4943 30.5596 13.6759 30.4827 14.1278C30.1711 15.9311 28.9244 18.2624 25.1417 24.1285C24.4885 25.1463 23.9548 25.9825 23.9633 25.9868C23.9676 25.9952 24.3262 26.029 24.7617 26.0628C30.376 26.5273 33.3518 27.6423 33.3475 29.2809C33.3432 30.0242 32.848 30.5944 31.7465 31.1096C30.0216 31.9205 27.1099 32.44 23.1777 32.6342C22.0677 32.6891 19.1986 32.6638 18.2039 32.5878C13.3709 32.2288 10.4207 31.4728 9.33626 30.3114C8.99043 29.944 8.90077 29.7328 8.89651 29.2936C8.89651 28.9811 8.91358 28.9051 9.01605 28.7023C9.16121 28.4236 9.48569 28.0815 9.83151 27.8492C11.0355 27.0299 13.6569 26.3964 17.0084 26.105C17.4311 26.0712 17.8965 26.029 18.0459 26.0163C18.2295 25.9994 18.3106 25.9741 18.2978 25.9403C18.285 25.915 17.8623 25.2477 17.35 24.4579C13.3666 18.3046 12.0943 15.9395 11.7741 14.0897C11.6972 13.6378 11.6844 13.4562 11.7058 12.8016C11.7314 11.9612 11.804 11.56 12.0516 10.8209C12.6749 8.97955 14.1436 7.18043 16.0051 5.96835C16.9273 5.37286 18.1355 4.8534 19.1645 4.60844C19.9842 4.4184 20.3813 4.37617 21.3205 4.39728C22.0634 4.40995 22.2513 4.43106 22.785 4.54087ZM12.1498 37.2587C12.2139 37.3052 12.312 37.4108 12.3675 37.4868L12.4615 37.6262V40.4853V43.3445L12.3675 43.4839C12.312 43.5599 12.2139 43.6655 12.1498 43.7119C12.0303 43.8006 12.0132 43.8006 8.39271 43.8006C4.83201 43.8006 4.75089 43.8006 4.61 43.7162C4.52888 43.6697 4.42642 43.5768 4.37518 43.5134C4.28552 43.3952 4.28552 43.3656 4.27272 40.5994C4.26418 39.0621 4.27272 37.7402 4.28552 37.6642C4.31968 37.4868 4.53315 37.2461 4.7082 37.1954C4.78505 37.1701 6.33912 37.1574 8.43541 37.1616C12.0089 37.1701 12.0303 37.1701 12.1498 37.2587ZM37.681 37.2503C38.0866 37.4952 38.0866 38.0865 37.6853 38.3315C37.5444 38.4159 37.4462 38.4159 27.8314 38.4159C18.2167 38.4159 18.1185 38.4159 17.9776 38.3315C17.5165 38.0527 17.6061 37.3474 18.1227 37.1912C18.191 37.1701 22.5501 37.1574 27.8955 37.1616C37.3095 37.1701 37.5486 37.1701 37.681 37.2503ZM37.6511 44.9705C38.1079 45.2028 38.1079 45.8447 37.6511 46.0685C37.5102 46.1403 36.9509 46.1446 27.8314 46.1446C18.4984 46.1446 18.1526 46.1403 18.0117 46.0643C17.8068 45.9545 17.7043 45.8025 17.683 45.566C17.6574 45.2914 17.7684 45.0972 18.0117 44.9705L18.1996 44.8776H27.8314H37.4632L37.6511 44.9705ZM12.1199 47.3229C12.201 47.3651 12.3078 47.4496 12.3547 47.5129C12.4401 47.6269 12.4401 47.6861 12.4529 50.5283C12.4615 53.3664 12.4615 53.434 12.3761 53.5691C12.3291 53.6451 12.2309 53.7423 12.1541 53.7887C12.0175 53.869 11.9321 53.8732 8.38417 53.8732C4.27272 53.8732 4.55023 53.8985 4.36237 53.5353L4.26418 53.3495V50.5748C4.26418 48.7081 4.28125 47.7579 4.31114 47.6776C4.37091 47.5213 4.5118 47.3693 4.66977 47.3017C4.77224 47.2553 5.4895 47.2468 8.38417 47.2426C11.7954 47.2426 11.979 47.2468 12.1199 47.3229ZM37.681 52.716C38.0908 53.0159 38.0951 53.5438 37.6853 53.7887C37.5444 53.8732 37.4462 53.8732 27.8314 53.8732C18.2167 53.8732 18.1185 53.8732 17.9776 53.7887C17.5165 53.51 17.6061 52.8047 18.1227 52.6484C18.191 52.6273 22.5501 52.6146 27.904 52.6189L37.5614 52.6273L37.681 52.716Z" fill="#0C8346"/>
<path d="M20.3596 5.68954C19.1342 5.8458 17.8449 6.33148 16.7092 7.07056C14.6556 8.40089 13.2894 10.3521 13.0161 12.3497C12.9393 12.9071 12.982 13.7476 13.1143 14.2586C13.4687 15.6101 14.63 17.8146 16.833 21.2904C17.324 22.0717 19.1684 24.9309 19.971 26.1683C20.0265 26.2485 20.2998 26.6878 20.5773 27.1397C20.8591 27.5915 21.1024 27.9674 21.1195 27.9716C21.1366 27.9759 21.3714 27.6169 21.6404 27.1777C21.9094 26.7342 22.1783 26.3034 22.2338 26.219C22.5541 25.7333 25.1157 21.7634 25.5128 21.1426C27.5279 17.9709 28.7917 15.5889 29.1076 14.3642C29.4406 13.0592 29.2699 11.6951 28.6038 10.3816C27.3657 7.94478 24.6973 6.05696 21.9948 5.70643C21.4739 5.63886 20.8121 5.63041 20.3596 5.68954ZM21.8966 7.90254C22.6394 7.99968 23.139 8.15172 23.7879 8.47691C25.4914 9.3258 26.6612 10.918 26.9558 12.8016C27.0498 13.3886 27.0241 14.3557 26.8961 14.8921C26.546 16.3914 25.7561 17.557 24.4881 18.4566C22.8145 19.6391 20.4791 19.8249 18.5877 18.9253C17.3582 18.3383 16.3933 17.3712 15.8126 16.1464C15.5778 15.6481 15.4753 15.344 15.3601 14.8034C15.2362 14.2333 15.2277 13.2492 15.3387 12.6538C15.9023 9.59186 18.8055 7.48444 21.8966 7.90254Z" fill="#0C8346"/>
<path d="M20.3905 9.16549C17.9953 9.58782 16.3388 11.7164 16.5651 14.0856C16.659 15.0992 17.0902 16.0283 17.8118 16.7801C18.2131 17.1982 18.5845 17.4727 19.1011 17.7219C20.2966 18.3089 21.6457 18.3596 22.871 17.8655C24.9929 17.0039 26.1542 14.736 25.5907 12.5484C25.4626 12.0458 25.1125 11.3194 24.8051 10.9182C24.1903 10.1157 23.251 9.50336 22.2605 9.24996C21.7268 9.11481 20.8943 9.08103 20.3905 9.16549Z" fill="#0C8346"/>
<path d="M18.7395 27.2494C18.6328 27.2579 18.24 27.2832 17.8643 27.3086C14.9483 27.4986 12.1817 28.0645 10.8795 28.7276C10.5081 28.9176 10.158 29.1922 10.158 29.2935C10.158 29.3822 10.4739 29.6567 10.7642 29.8172C12.0579 30.5309 14.8501 31.0926 18.2485 31.3207C18.6029 31.346 19.5721 31.3756 20.4046 31.3925C25.0412 31.4685 29.4088 30.8646 31.3429 29.8763C31.7186 29.6821 32.0601 29.4076 32.0601 29.2935C32.0601 29.0612 31.2746 28.6178 30.3097 28.3053C28.7086 27.7858 25.8994 27.3593 23.4402 27.2579L23.1285 27.2452L22.6589 28.0054C22.4027 28.4235 22.0782 28.9641 21.9416 29.2091C21.6086 29.7961 21.5018 29.8975 21.1859 29.9186C20.8059 29.9439 20.7205 29.8637 20.2552 29.0612C20.0417 28.6896 19.7001 28.1279 19.5037 27.8154C19.111 27.1988 19.1451 27.2199 18.7395 27.2494Z" fill="#0C8346"/>
<path d="M5.54614 40.4644V42.5127H8.36397H11.1818V40.4644V38.4161H8.36397H5.54614V40.4644Z" fill="#0C8346"/>
<path d="M5.57603 48.4969C5.55895 48.5096 5.54614 49.443 5.54614 50.5663V52.6062H8.36397H11.1818V50.5368V48.4674H8.39385C6.85686 48.4674 5.58884 48.48 5.57603 48.4969Z" fill="#0C8346"/>
</svg>
