<svg width="53" height="53" viewBox="0 0 53 53" fill="none" xmlns="http://www.w3.org/2000/svg">
<path fill-rule="evenodd" clip-rule="evenodd" d="M26.13 0C11.6988 0 0 11.6988 0 26.13C0 40.5611 11.6988 52.26 26.13 52.26C40.5611 52.26 52.26 40.5611 52.26 26.13C52.26 11.6988 40.5611 0 26.13 0ZM35.8167 16.4433C36.837 17.4638 36.837 19.1182 35.8167 20.1387L20.1387 35.8167C19.1182 36.837 17.4638 36.837 16.4433 35.8167C15.4229 34.7963 15.4229 33.1417 16.4433 32.1213L32.1213 16.4433C33.1417 15.4229 34.7963 15.4229 35.8167 16.4433ZM36.582 32.6625C36.582 34.8271 34.8271 36.582 32.6625 36.582C30.4979 36.582 28.743 34.8271 28.743 32.6625C28.743 30.4979 30.4979 28.743 32.6625 28.743C34.8271 28.743 36.582 30.4979 36.582 32.6625ZM19.5975 23.517C21.7621 23.517 23.517 21.7621 23.517 19.5975C23.517 17.4328 21.7621 15.678 19.5975 15.678C17.4328 15.678 15.678 17.4328 15.678 19.5975C15.678 21.7621 17.4328 23.517 19.5975 23.517Z" fill="#0C8346"/>
</svg>
