<svg width="27" height="24" viewBox="0 0 27 24" fill="none" xmlns="http://www.w3.org/2000/svg">
<path d="M25.1803 23.9999H1.00721C0.456603 23.9999 0 23.5918 0 23.0996C0 22.6074 0.456603 22.1992 1.00721 22.1992H25.1803C25.7309 22.1992 26.1875 22.6074 26.1875 23.0996C26.1875 23.5918 25.7309 23.9999 25.1803 23.9999Z" fill="#0C8346"/>
<path d="M22.5221 1.76926C19.9168 -0.559647 17.3652 -0.619671 14.6927 1.76926L13.0677 3.22183C12.9334 3.34188 12.8797 3.53395 12.9334 3.70202C13.9541 6.88326 16.8011 9.42825 20.3599 10.3406C20.4137 10.3526 20.4674 10.3646 20.5211 10.3646C20.6688 10.3646 20.8031 10.3166 20.9105 10.2205L22.5221 8.768C23.8516 7.59154 24.4962 6.45109 24.4962 5.29864C24.5096 4.11018 23.865 2.95773 22.5221 1.76926Z" fill="#0C8346"/>
<path d="M17.942 11.4321C17.5526 11.264 17.1766 11.0959 16.814 10.9039C16.5185 10.7478 16.2365 10.5797 15.9545 10.3997C15.7262 10.2676 15.4576 10.0755 15.2024 9.88346C15.1756 9.87145 15.0816 9.79942 14.9741 9.70339C14.5309 9.36723 14.0341 8.93506 13.5909 8.45488C13.5506 8.43087 13.4834 8.34683 13.3894 8.23879C13.2551 8.09473 13.0268 7.85464 12.8254 7.57853C12.6642 7.39846 12.4762 7.13436 12.3016 6.87026C12.0868 6.54613 11.8988 6.222 11.7108 5.88587C11.6823 5.83138 11.6547 5.77716 11.6282 5.72326C11.4299 5.32312 10.8462 5.20613 10.5001 5.51556L2.80703 12.3924C2.63244 12.5485 2.47129 12.8486 2.431 13.0527L1.70581 17.6505C1.57152 18.4668 1.82668 19.2351 2.39071 19.7513C2.87418 20.1715 3.54565 20.3996 4.27084 20.3996C4.432 20.3996 4.59315 20.3876 4.7543 20.3636L9.91123 19.7153C10.153 19.6793 10.4887 19.5352 10.6498 19.3792L18.3332 12.5109C18.6819 12.1993 18.5504 11.6646 18.097 11.4916C18.046 11.4722 17.9943 11.4522 17.942 11.4321Z" fill="#0C8346"/>
</svg>
