<svg width="27" height="24" viewBox="0 0 27 24" fill="none" xmlns="http://www.w3.org/2000/svg">
<path d="M25.1803 23.9999H1.00721C0.456603 23.9999 0 23.5918 0 23.0996C0 22.6074 0.456603 22.1992 1.00721 22.1992H25.1803C25.7309 22.1992 26.1875 22.6074 26.1875 23.0996C26.1875 23.5918 25.7309 23.9999 25.1803 23.9999Z" fill="#3A3335"/>
<path d="M22.5218 1.76926C19.9165 -0.559647 17.3649 -0.619671 14.6924 1.76926L13.0675 3.22183C12.9332 3.34188 12.8795 3.53395 12.9332 3.70202C13.9538 6.88326 16.8009 9.42825 20.3597 10.3406C20.4134 10.3526 20.4671 10.3646 20.5208 10.3646C20.6686 10.3646 20.8029 10.3166 20.9103 10.2205L22.5218 8.768C23.8514 7.59154 24.496 6.45109 24.496 5.29864C24.5094 4.11018 23.8648 2.95773 22.5218 1.76926Z" fill="#3A3335"/>
<path d="M17.9423 11.4321C17.5528 11.264 17.1768 11.0959 16.8142 10.9039C16.5188 10.7478 16.2367 10.5797 15.9547 10.3997C15.7264 10.2676 15.4578 10.0755 15.2027 9.88346C15.1758 9.87145 15.0818 9.79942 14.9744 9.70339C14.5312 9.36723 14.0343 8.93506 13.5911 8.45488C13.5508 8.43087 13.4837 8.34683 13.3897 8.23879C13.2554 8.09473 13.0271 7.85464 12.8256 7.57853C12.6645 7.39846 12.4765 7.13436 12.3019 6.87026C12.087 6.54613 11.899 6.222 11.711 5.88587C11.6825 5.83138 11.655 5.77716 11.6284 5.72326C11.4302 5.32312 10.8464 5.20613 10.5003 5.51556L2.80727 12.3924C2.63269 12.5485 2.47154 12.8486 2.43125 13.0527L1.70605 17.6505C1.57176 18.4668 1.82692 19.2351 2.39096 19.7513C2.87442 20.1715 3.54589 20.3996 4.27109 20.3996C4.43224 20.3996 4.59339 20.3876 4.75455 20.3636L9.91147 19.7153C10.1532 19.6793 10.4889 19.5352 10.6501 19.3792L18.3335 12.5109C18.6821 12.1993 18.5506 11.6646 18.0973 11.4916C18.0462 11.4722 17.9945 11.4522 17.9423 11.4321Z" fill="#3A3335"/>
</svg>
