<svg width="66" height="55" viewBox="0 0 66 55" fill="none" xmlns="http://www.w3.org/2000/svg">
<path d="M64.8922 24.855L54.8895 15.9034V5.56283C54.8895 3.69311 53.1965 2.17785 51.1042 2.17785C49.0167 2.17785 47.3236 3.69311 47.3236 5.56283V9.13261L39.8759 2.46721C36.1936 -0.826317 29.7915 -0.820474 26.1176 2.47317L1.10731 24.855C-0.369103 26.1789 -0.369103 28.321 1.10731 29.6429C2.58439 30.9664 4.98273 30.9664 6.45927 29.6429L31.4672 7.2605C32.2819 6.53524 33.7178 6.53524 34.5282 7.25836L59.5403 29.6429C60.282 30.3047 61.249 30.6339 62.2157 30.6339C63.1843 30.6339 64.1529 30.3044 64.8923 29.6429C66.3693 28.3211 66.3693 26.179 64.8922 24.855Z" fill="#0C8346"/>
<path d="M34.314 13.6859C33.5874 13.036 32.4109 13.036 31.6864 13.6859L9.6873 33.3676C9.33997 33.6783 9.14307 34.1025 9.14307 34.5452V48.9002C9.14307 52.2688 12.195 54.9999 15.9589 54.9999H26.8507V39.9046H39.1473V54.9999H50.0393C53.803 54.9999 56.855 52.2688 56.855 48.9004V34.5452C56.855 34.1025 56.6598 33.6783 56.3108 33.3676L34.314 13.6859Z" fill="#0C8346"/>
</svg>
