<svg width="43" height="59" viewBox="0 0 43 59" fill="none" xmlns="http://www.w3.org/2000/svg">
<path d="M38.7383 0H3.52167C1.58475 0 0 1.7478 0 3.884V54.376C0 56.5122 1.58475 58.26 3.52167 58.26H38.7383C40.6752 58.26 42.26 56.5122 42.26 54.376V3.884C42.26 1.7478 40.6752 0 38.7383 0ZM10.565 42.724C9.59302 42.724 8.80417 41.854 8.80417 40.782C8.80417 39.71 9.59302 38.84 10.565 38.84C11.537 38.84 12.3258 39.71 12.3258 40.782C12.3258 41.854 11.537 42.724 10.565 42.724ZM10.565 34.956C9.59302 34.956 8.80417 34.086 8.80417 33.014C8.80417 31.942 9.59302 31.072 10.565 31.072C11.537 31.072 12.3258 31.942 12.3258 33.014C12.3258 34.086 11.537 34.956 10.565 34.956ZM10.565 27.188C9.59302 27.188 8.80417 26.318 8.80417 25.246C8.80417 24.174 9.59302 23.304 10.565 23.304C11.537 23.304 12.3258 24.174 12.3258 25.246C12.3258 26.318 11.537 27.188 10.565 27.188ZM10.565 19.42C9.59302 19.42 8.80417 18.55 8.80417 17.478C8.80417 16.406 9.59302 15.536 10.565 15.536C11.537 15.536 12.3258 16.406 12.3258 17.478C12.3258 18.55 11.537 19.42 10.565 19.42ZM31.695 42.724H17.6083C16.6364 42.724 15.8475 41.854 15.8475 40.782C15.8475 39.71 16.6364 38.84 17.6083 38.84H31.695C32.667 38.84 33.4558 39.71 33.4558 40.782C33.4558 41.854 32.667 42.724 31.695 42.724ZM31.695 34.956H17.6083C16.6364 34.956 15.8475 34.086 15.8475 33.014C15.8475 31.942 16.6364 31.072 17.6083 31.072H31.695C32.667 31.072 33.4558 31.942 33.4558 33.014C33.4558 34.086 32.667 34.956 31.695 34.956ZM31.695 27.188H17.6083C16.6364 27.188 15.8475 26.318 15.8475 25.246C15.8475 24.174 16.6364 23.304 17.6083 23.304H31.695C32.667 23.304 33.4558 24.174 33.4558 25.246C33.4558 26.318 32.667 27.188 31.695 27.188ZM31.695 19.42H17.6083C16.6364 19.42 15.8475 18.55 15.8475 17.478C15.8475 16.406 16.6364 15.536 17.6083 15.536H31.695C32.667 15.536 33.4558 16.406 33.4558 17.478C33.4558 18.55 32.667 19.42 31.695 19.42Z" fill="#0C8346"/>
</svg>
