<svg width="163" height="154" viewBox="0 0 163 154" fill="none" xmlns="http://www.w3.org/2000/svg">
<path d="M80.1256 79.0294L80.1257 79.0294C85.3421 78.8625 90.5586 78.6954 95.7748 78.5283C100.621 78.3731 105.468 78.2179 110.314 78.0628L112.133 78.0046L111.109 76.5005C110.717 75.9257 110.391 75.368 110.066 74.8118C110.021 74.7347 109.976 74.6576 109.93 74.5806C109.568 73.9627 109.188 73.332 108.738 72.7692C107.782 71.5761 106.534 70.727 104.465 70.4872L104.464 70.4871C99.3185 69.8926 94.1726 69.2962 89.0258 68.6997L88.3595 68.6225L88.3594 68.6225C77.946 67.417 67.5297 66.2115 57.1149 65.0066L54.9101 64.7516L56.1798 66.572C56.2986 66.7424 56.4722 66.9212 56.6372 67.0797C56.8168 67.2522 57.0415 67.4525 57.3022 67.6738C57.8246 68.1172 58.5169 68.6662 59.3363 69.2794C60.9757 70.5064 63.1481 72.009 65.5312 73.4619C67.9118 74.9132 70.5219 76.3267 73.0336 77.3649C75.5227 78.3938 78.0144 79.0968 80.1256 79.0294Z" fill="#0C8346" stroke="#0C8346" stroke-width="2"/>
<path d="M38.7297 44.4429L41.2274 45.0262C41.2291 45.0266 41.2308 45.027 41.2325 45.0274C53.0899 47.797 64.9473 50.5665 76.8047 53.3347L76.5773 54.3085L76.8047 53.3347C83.4174 54.8787 90.0322 56.424 96.6441 57.9686C99.1165 58.5451 100.593 59.5354 101.771 60.9213C102.337 61.5874 102.821 62.3298 103.303 63.1022C103.413 63.2773 103.522 63.454 103.633 63.6329C104.02 64.2573 104.423 64.9085 104.901 65.6106L106.13 67.4148L103.961 67.1671C91.0928 65.697 78.2261 64.2262 65.3571 62.7542L38.7297 44.4429ZM38.7297 44.4429L40.1734 46.5629M38.7297 44.4429L40.1734 46.5629M40.1734 46.5629C41.0796 47.8936 42.8264 49.5225 44.9133 51.1887M40.1734 46.5629L44.9133 51.1887M44.9133 51.1887C47.0257 52.8752 49.5711 54.6655 52.1544 56.3171M44.9133 51.1887L52.1544 56.3171M52.1544 56.3171C54.7375 57.9685 57.3746 59.4915 59.6731 60.6394M52.1544 56.3171L59.6731 60.6394M59.6731 60.6394C61.9261 61.7646 63.9842 62.5974 65.3568 62.7541L59.6731 60.6394Z" fill="#0C8346" stroke="#0C8346" stroke-width="2"/>
<path d="M92.299 90.8074L92.299 90.8074C90.5819 91.1324 88.4669 90.9053 86.3285 90.432C84.1675 89.9536 81.8814 89.1999 79.7775 88.3894C77.6709 87.5779 75.7271 86.7016 74.2458 85.969C73.5055 85.6029 72.8744 85.2695 72.3925 84.995C71.9546 84.7457 71.5333 84.487 71.3105 84.2749L69.598 82.6446L71.9605 82.5514C77.5537 82.3305 83.147 82.1085 88.7406 81.8865C91.5701 81.7742 94.3996 81.6619 97.2292 81.5497L97.2294 81.5497C99.4936 81.4605 101.765 81.3705 104.037 81.2805C106.342 81.1892 108.647 81.0979 110.945 81.0074L92.299 90.8074ZM92.299 90.8074C100.032 89.3432 107.764 87.8784 115.498 86.4129L116.999 86.1286M92.299 90.8074L116.999 86.1286M116.999 86.1286L116.138 84.8669M116.999 86.1286L116.138 84.8669M116.138 84.8669C115.839 84.4287 115.606 84.0315 115.381 83.6481M116.138 84.8669L115.381 83.6481M115.381 83.6481C115.339 83.5781 115.299 83.5085 115.258 83.4392M115.381 83.6481L115.258 83.4392M115.258 83.4392C115.004 83.0109 114.728 82.5574 114.379 82.1749M115.258 83.4392L114.379 82.1749M114.379 82.1749C114.009 81.7687 113.559 81.4413 112.96 81.2373M114.379 82.1749L112.96 81.2373M112.96 81.2373C112.383 81.0404 111.721 80.9765 110.946 81.0074L112.96 81.2373Z" fill="#0C8346" stroke="#0C8346" stroke-width="2"/>
<path d="M113 107.902C117.251 105.448 118.393 102.807 120.811 98.7915C123.522 94.2888 121.745 93.6158 118.716 89.1607C118.407 88.7067 114.378 89.3137 113.925 89.7571C113.371 90.2969 113.74 93.3565 113.706 94.0434C113.47 98.6628 113.235 103.283 113 107.902Z" fill="#0C8346"/>
<path d="M111.167 92.0445L111.223 90.7823L109.981 91.0175C109.369 91.1335 108.713 91.2026 108.011 91.2765C107.962 91.2817 107.913 91.2868 107.864 91.2921C107.128 91.3699 106.34 91.457 105.608 91.6202C104.148 91.946 102.6 92.6527 102.094 94.5299L102.094 94.5303C101.794 95.6438 101.494 96.7574 101.194 97.8711C100.474 100.543 99.7546 103.215 99.0345 105.886L98.6091 107.464L100.208 107.125C103.97 106.326 106.66 103.92 108.42 101.064C110.173 98.2199 111.04 94.8786 111.167 92.0445Z" fill="#0C8346" stroke="#0C8346" stroke-width="2"/>
<path d="M98.5504 95.1631L98.7839 93.7507L97.3774 94.0175C93.9215 94.6731 91.987 95.4856 90.5842 97.0416C89.9062 97.7936 89.3912 98.6771 88.8782 99.6772C88.6503 100.122 88.4156 100.604 88.1662 101.116C88.1343 101.182 88.1021 101.248 88.0697 101.314C87.7821 101.905 87.4698 102.542 87.1111 103.238L86.2835 104.845L88.084 104.693C90.6771 104.474 93.1123 103.125 94.9642 101.368C96.8105 99.616 98.1883 97.3532 98.5504 95.1631Z" fill="#0C8346" stroke="#0C8346" stroke-width="2"/>
<path d="M5 76.9991C5 37.2346 39.2492 5 81.499 5C123.749 5 157.998 37.2346 158 76.9991C158 116.764 123.751 148.998 81.499 149C39.2492 149 5 116.765 5 76.9991ZM81.499 143.237C120.367 143.237 151.874 113.582 151.876 76.9991C151.876 40.4177 120.369 10.7634 81.499 10.7634C42.6313 10.7634 11.1236 40.4177 11.1236 76.9991C11.1236 113.58 42.6313 143.235 81.499 143.237Z" fill="#0C8346" stroke="#0C8346" stroke-width="9"/>
</svg>
