<svg width="58" height="54" viewBox="0 0 58 54" fill="none" xmlns="http://www.w3.org/2000/svg">
<path fill-rule="evenodd" clip-rule="evenodd" d="M9.158 0C6.72915 0 4.39977 0.853391 2.68232 2.37244C0.964858 3.89148 0 5.95175 0 8.1V45.9C0 48.0483 0.964858 50.1085 2.68232 51.6276C4.39977 53.1466 6.72915 54 9.158 54H27.474C29.9028 54 32.2322 53.1466 33.9497 51.6276C35.6671 50.1085 36.632 48.0483 36.632 45.9V8.1C36.632 5.95175 35.6671 3.89148 33.9497 2.37244C32.2322 0.853391 29.9028 0 27.474 0H9.158ZM40.5791 14.2911C41.1515 13.7849 41.9279 13.5006 42.7373 13.5006C43.5468 13.5006 44.3231 13.7849 44.8956 14.2911L57.1062 25.0911C57.6785 25.5974 58 26.2841 58 27C58 27.7159 57.6785 28.4026 57.1062 28.9089L44.8956 39.7089C44.3198 40.2007 43.5487 40.4729 42.7483 40.4667C41.9479 40.4606 41.1823 40.1766 40.6163 39.676C40.0503 39.1754 39.7292 38.4982 39.7223 37.7903C39.7153 37.0824 40.023 36.4003 40.5791 35.8911L47.5789 29.7H21.3687C20.559 29.7 19.7826 29.4155 19.2101 28.9092C18.6376 28.4028 18.316 27.7161 18.316 27C18.316 26.2839 18.6376 25.5972 19.2101 25.0908C19.7826 24.5845 20.559 24.3 21.3687 24.3H47.5789L40.5791 18.1089C40.0068 17.6026 39.6853 16.9159 39.6853 16.2C39.6853 15.4841 40.0068 14.7974 40.5791 14.2911Z" fill="#0C8346"/>
</svg>
