<svg width="62" height="48" viewBox="0 0 62 48" fill="none" xmlns="http://www.w3.org/2000/svg">
<path fill-rule="evenodd" clip-rule="evenodd" d="M0 12C0 5.37258 5.55167 0 12.4 0H49.6C56.4482 0 62 5.37258 62 12V13.5C62 14.3284 61.3059 15 60.45 15H1.55C0.693966 15 0 14.3284 0 13.5V12ZM1.55 21C0.693966 21 0 21.6717 0 22.5V36C0 42.6273 5.55167 48 12.4 48H49.6C56.4482 48 62 42.6273 62 36V22.5C62 21.6717 61.3059 21 60.45 21H1.55ZM34.1 33C34.1 31.3431 35.4879 30 37.2 30H46.5C48.2121 30 49.6 31.3431 49.6 33C49.6 34.6569 48.2121 36 46.5 36H37.2C35.4879 36 34.1 34.6569 34.1 33Z" fill="#0C8346"/>
</svg>
