<svg width="56" height="61" viewBox="0 0 56 61" fill="none" xmlns="http://www.w3.org/2000/svg">
<path d="M25.3502 36.9282H35.8113C35.7176 33.4208 35.1959 30.0626 34.2863 27.0608C31.4903 27.7026 28.4671 28.0722 25.3501 28.1435V36.9282H25.3502Z" fill="#0C8346"/>
<path d="M25.3501 60.274C26.4069 60.0665 27.437 59.5673 28.4403 58.7958C29.8382 57.7132 31.1091 56.1377 32.2127 54.1214C32.7076 53.2138 33.1558 52.2478 33.5504 51.2234C30.9886 50.6529 28.2195 50.3224 25.3568 50.251V60.274H25.3501Z" fill="#0C8346"/>
<path d="M23.0091 60.2739V50.251C20.1463 50.3224 17.3772 50.6529 14.8154 51.2234C15.2101 52.2478 15.6583 53.2138 16.1532 54.1214C17.2568 56.1377 18.521 57.7131 19.9256 58.7958C20.9222 59.5673 21.9523 60.0665 23.0091 60.2739Z" fill="#0C8346"/>
<path d="M25.3501 47.9819C28.4737 48.0533 31.4903 48.4228 34.2863 49.0646C35.1892 46.0629 35.7176 42.7047 35.8113 39.1973H25.3502L25.3501 47.9819Z" fill="#0C8346"/>
<path d="M23.009 39.1973H12.5479C12.6415 42.7047 13.1632 46.0629 14.0729 49.0646C16.8688 48.4228 19.892 48.0533 23.009 47.9819V39.1973Z" fill="#0C8346"/>
<path d="M23.009 28.1435C19.8854 28.0722 16.8688 27.7026 14.0729 27.0608C13.1699 30.0626 12.6415 33.4208 12.5479 36.9282H23.009V28.1435Z" fill="#0C8346"/>
<path d="M19.0359 60.9933C17.1764 59.7291 15.4909 57.7647 14.0795 55.1844C13.5043 54.1342 12.9893 53.006 12.5411 51.8066C10.7553 52.3318 9.09646 52.9802 7.61156 53.7386C7.28382 53.9072 6.96945 54.0757 6.66846 54.2508C9.94599 57.5897 14.2268 59.9884 19.0359 60.9933Z" fill="#0C8346"/>
<path d="M14.0796 20.9407C15.491 18.354 17.1764 16.3961 19.036 15.1318C14.2201 16.1432 9.93933 18.5355 6.66187 21.8678C6.96286 22.0429 7.27723 22.2179 7.60497 22.38C9.09655 23.145 10.7487 23.7933 12.5345 24.312C12.9894 23.1191 13.5044 21.991 14.0796 20.9407Z" fill="#0C8346"/>
<path d="M43.2493 52.5201C46.2458 48.8118 48.1119 44.2087 48.3594 39.1973H38.1524C38.0588 42.8992 37.5102 46.4584 36.5471 49.6546C38.4601 50.2186 40.2393 50.9123 41.8446 51.7358C42.3329 51.9885 42.8011 52.2478 43.2493 52.5201Z" fill="#0C8346"/>
<path d="M23.0091 15.8513C21.9523 16.0588 20.9222 16.558 19.9189 17.3295C18.5211 18.4122 17.2502 19.9876 16.1466 22.0038C15.6516 22.9115 15.2034 23.8775 14.8088 24.9018C17.3706 25.4723 20.1397 25.803 23.0025 25.8743V15.8513H23.0091Z" fill="#0C8346"/>
<path d="M46.9615 30.1015C45.617 31.6704 44.6539 32.7142 44.5201 32.8633L44.5067 32.8828C43.7174 33.7515 42.3195 33.7515 41.5302 32.8828L41.5169 32.8633C41.3162 32.643 39.2427 30.3868 36.8147 27.3916C37.6106 30.3414 38.0722 33.5765 38.1591 36.9283H48.3661C48.239 34.5425 47.7573 32.2474 46.9615 30.1015Z" fill="#0C8346"/>
<path d="M5.11017 23.6052C2.11363 27.3136 0.247482 31.9102 0 36.9281H10.207C10.3006 33.2262 10.8491 29.667 11.8122 26.4708C9.89928 25.9067 8.12008 25.213 6.51479 24.3897C6.02652 24.1304 5.55831 23.871 5.11017 23.6052Z" fill="#0C8346"/>
<path d="M41.6973 54.2576C41.3963 54.0826 41.0819 53.9075 40.7541 53.7455C39.2626 52.9804 37.6104 52.3321 35.8246 51.8135C35.3697 53.0063 34.8548 54.1344 34.2862 55.1912C32.8748 57.778 31.1893 59.7359 29.3298 61.0001C34.1323 59.9887 38.4131 57.59 41.6973 54.2576Z" fill="#0C8346"/>
<path d="M5.11017 52.52C5.55831 52.2542 6.02652 51.9884 6.51479 51.742C8.12008 50.9187 9.89928 50.2185 11.8122 49.6609C10.8558 46.4647 10.3006 42.9055 10.207 39.2036H0C0.247482 44.2085 2.11363 48.8116 5.11017 52.52Z" fill="#0C8346"/>
<path d="M28.4403 17.3295C27.4437 16.558 26.4069 16.0588 25.3501 15.8513V25.8743C28.2129 25.803 30.982 25.4723 33.5438 24.9018C33.1492 23.8775 32.701 22.9115 32.206 22.0038C31.1091 19.9811 29.8382 18.4122 28.4403 17.3295Z" fill="#0C8346"/>
<path d="M54.6265 7.46211C53.9911 6.00988 53.0814 4.70029 51.9243 3.5787C50.7671 2.45712 49.4228 1.57541 47.9178 0.959507C46.366 0.324158 44.7139 0 43.015 0C41.3161 0 39.6639 0.324158 38.1121 0.959507C36.6139 1.57541 35.2627 2.45712 34.1056 3.5787C32.9485 4.70029 32.0388 6.0034 31.4034 7.46211C30.2128 10.185 30.2329 13.284 31.2897 16.0134C31.4637 16.4672 31.6643 16.9081 31.8984 17.336C33.1091 19.5791 34.895 22.114 36.6876 24.435C37.1892 25.0899 37.6975 25.7252 38.1858 26.3281C39.6908 28.1888 41.0687 29.7836 41.9716 30.795C42.5201 31.4174 43.51 31.4174 44.0652 30.795C44.5936 30.1985 45.2959 29.3946 46.0919 28.4545C48.6403 25.4333 52.1653 20.9924 54.1384 17.3359C55.7569 14.3213 56.0111 10.6389 54.6265 7.46211ZM43.0149 5.28377C46.9345 5.28377 50.105 8.36327 50.105 12.1559C50.105 12.2596 50.105 12.3634 50.0982 12.4671C50.0581 13.3618 49.8374 14.2111 49.4761 14.9891C48.8006 16.4413 47.6167 17.6212 46.1452 18.3279C45.202 18.7817 44.1318 19.0345 43.0082 19.0345C42.9413 19.0345 42.8812 19.0345 42.8143 19.0345C38.9883 18.9373 35.9182 15.8967 35.9182 12.1624C35.9182 11.9614 35.9249 11.7604 35.9449 11.5659C36.266 8.04559 39.3094 5.28377 43.0149 5.28377Z" fill="#0C8346"/>
</svg>
